<svg xmlns="http://www.w3.org/2000/svg" viewBox="0 0 32.99 21.72"><defs><style>.cls-1{fill:#453c59;}</style></defs><title>Recurso 1</title><g id="Capa_2" data-name="Capa 2"><g id="Capa_1-2" data-name="Capa 1"><path class="cls-1" d="M25,9.61a2,2,0,0,0-.67-1.38A2,2,0,0,0,23,7.73a2,2,0,0,0-1.49.67C20.3,9.75,16.05,11.92,11,14.08a9.65,9.65,0,0,0,1.89,2.69c.22.19.44.38.66.55,4.83-2.12,9.33-4.44,11-6.26A2,2,0,0,0,25,9.61Z"/><path class="cls-1" d="M21.47,0a12.3,12.3,0,0,0-8.19,2.69,8.76,8.76,0,0,0-3.2,7,10.42,10.42,0,0,0,.55,3.41c4.92-2.11,9.06-4.2,10.13-5.41a3,3,0,1,1,4.48,4C23.51,13.67,19,16,14.5,18a9.34,9.34,0,0,0,5.05,1.46,12.05,12.05,0,0,0,7-2.05,13.87,13.87,0,0,0,4.74-6.15A24,24,0,0,0,33,1.92V0Z"/><path class="cls-1" d="M1.33,17.84a2,2,0,0,0-1.13,1,2,2,0,0,0-.08,1.52,2,2,0,0,0,2.55,1.22c6.74-2.38,18.92-7.28,21.83-10.55A2,2,0,0,0,25,9.61a2,2,0,0,0-.67-1.38A2,2,0,0,0,23,7.73a2,2,0,0,0-1.49.67C19.56,10.59,9.66,14.9,1.33,17.84Z"/></g></g></svg>