<svg width="415" height="94" viewBox="0 0 415 94" fill="none" xmlns="http://www.w3.org/2000/svg">
<path d="M370.203 62.4639V52.9919H414.619V62.4639H370.203ZM389.019 93.0559V80.8959H389.915V93.0559H389.019ZM363.675 66.1759V50.5599H378.523V66.1759H363.675ZM399.771 52.9919V48.2559H414.619V52.9919H399.771ZM414.619 48.3839H399.771C399.771 44.6293 398.747 41.5999 396.699 39.2959C394.736 36.9919 392.176 35.8399 389.019 35.8399V23.6799C393.883 23.6799 398.235 24.7466 402.075 26.8799C406 29.0133 409.072 31.9573 411.291 35.7119C413.51 39.4666 414.619 43.6906 414.619 48.3839ZM400.667 70.1439L413.979 72.7039C413.382 76.7146 411.974 80.2559 409.755 83.3279C407.622 86.3999 404.848 88.7893 401.435 90.4959C398.022 92.2026 394.139 93.0559 389.787 93.0559V80.8959C392.603 80.8959 394.992 79.9999 396.955 78.2079C399.003 76.3306 400.24 73.6426 400.667 70.1439ZM363.675 50.5599C363.675 45.4399 364.784 40.8746 367.003 36.8639C369.222 32.7679 372.251 29.5679 376.091 27.2639C379.931 24.8746 384.24 23.6799 389.019 23.6799V35.8399C385.776 35.8399 383.216 37.1199 381.339 39.6799C379.462 42.2399 378.523 45.8666 378.523 50.5599H363.675ZM363.675 66.1759H378.523C378.523 70.7839 379.462 74.4106 381.339 77.0559C383.216 79.6159 385.776 80.8959 389.019 80.8959V93.0559C384.24 93.0559 379.931 91.9039 376.091 89.5999C372.251 87.2106 369.222 84.0106 367.003 79.9999C364.784 75.9039 363.675 71.2959 363.675 66.1759Z" fill="#453C59"/>
<path d="M325.224 69.76V0L340.072 0.127998V69.76H325.224ZM317.8 37.248V25.728H356.2V37.248H317.8ZM325.224 69.632H340.072C340.072 71.936 340.413 73.9413 341.096 75.648C341.779 77.3547 342.717 78.6773 343.912 79.616C345.192 80.4693 346.685 80.896 348.392 80.896L346.728 92.928C339.987 92.928 334.696 90.88 330.856 86.784C327.101 82.688 325.224 76.9707 325.224 69.632ZM354.152 78.72L359.784 88.576C357.736 90.112 355.603 91.2213 353.384 91.904C351.251 92.5867 349.032 92.928 346.728 92.928L348.392 80.896C349.501 80.896 350.525 80.6827 351.464 80.256C352.403 79.8293 353.299 79.3173 354.152 78.72Z" fill="#453C59"/>
<path d="M274.25 91.008V25.728H289.098V91.008H274.25ZM283.722 48.64C283.722 43.9466 284.447 39.7653 285.898 36.096C287.349 32.3413 289.311 29.3973 291.786 27.264C294.261 25.1306 297.077 24.064 300.234 24.064L298.698 37.632C295.882 37.632 293.578 38.6986 291.786 40.832C289.994 42.88 289.098 45.4826 289.098 48.64H283.722ZM306.506 40.704C305.397 39.7653 304.117 39.04 302.666 38.528C301.301 37.9306 299.978 37.632 298.698 37.632L300.234 24.064C302.282 24.064 304.245 24.4906 306.122 25.344C308.085 26.112 309.834 27.1786 311.37 28.544L306.506 40.704Z" fill="#453C59"/>
<path d="M246.56 78.3361V34.9441H261.408V78.3361H246.56ZM231.2 80.2561L233.12 68.7361C235.851 68.7361 238.197 68.0534 240.16 66.6881C242.208 65.2374 243.787 63.1894 244.896 60.5441C246.005 57.8987 246.56 54.7841 246.56 51.2001L253.216 50.5601C253.216 56.2774 252.235 61.3974 250.272 65.9201C248.309 70.3574 245.664 73.8561 242.336 76.4161C239.093 78.9761 235.381 80.2561 231.2 80.2561ZM231.2 80.2561C227.189 80.2561 223.563 79.3601 220.32 77.5681C217.163 75.7761 214.645 73.3441 212.768 70.2721C210.976 67.1147 210.08 63.5734 210.08 59.6481L223.648 59.0081C223.648 61.8241 224.587 64.1707 226.464 66.0481C228.427 67.8401 230.645 68.7361 233.12 68.7361L231.2 80.2561ZM210.08 59.6481C210.08 55.7227 211.104 52.2241 213.152 49.1521C215.285 46.0801 218.144 43.6481 221.728 41.8561C225.312 39.9787 229.323 39.0401 233.76 39.0401L235.04 49.2801C231.712 49.2801 228.981 50.1761 226.848 51.9681C224.715 53.7601 223.648 56.1067 223.648 59.0081L210.08 59.6481ZM235.04 49.2801L233.76 39.0401H251.936V49.2801H235.04ZM246.56 51.2001V35.5841H253.216V50.5601L246.56 51.2001ZM261.408 35.7121H246.56C246.56 31.9574 245.536 28.9281 243.488 26.6241C241.525 24.3201 238.965 23.1681 235.808 23.1681V11.0081C240.672 11.0081 245.024 12.0747 248.864 14.2081C252.789 16.3414 255.861 19.2854 258.08 23.0401C260.299 26.7947 261.408 31.0187 261.408 35.7121ZM225.056 33.9201L211.616 31.3601C212.299 27.2641 213.707 23.7227 215.84 20.7361C218.059 17.6641 220.875 15.2747 224.288 13.5681C227.787 11.8614 231.627 11.0081 235.808 11.0081V23.1681C233.077 23.1681 230.688 24.0641 228.64 25.8561C226.677 27.6481 225.483 30.3361 225.056 33.9201Z" fill="#453C59"/>
<path d="M170.349 69.76V0L185.197 0.127998V69.76H170.349ZM162.925 37.248V25.728H201.325V37.248H162.925ZM170.349 69.632H185.197C185.197 71.936 185.538 73.9413 186.221 75.648C186.904 77.3547 187.842 78.6773 189.037 79.616C190.317 80.4693 191.81 80.896 193.517 80.896L191.853 92.928C185.112 92.928 179.821 90.88 175.981 86.784C172.226 82.688 170.349 76.9707 170.349 69.632ZM199.277 78.72L204.909 88.576C202.861 90.112 200.728 91.2213 198.509 91.904C196.376 92.5867 194.157 92.928 191.853 92.928L193.517 80.896C194.626 80.896 195.65 80.6827 196.589 80.256C197.528 79.8293 198.424 79.3173 199.277 78.72Z" fill="#453C59"/>
<path d="M139.78 66.1761V50.5601H154.628V66.1761H139.78ZM103.3 66.1761V50.5601H118.148V66.1761H103.3ZM128.516 35.8401V23.8081H129.54V35.8401H128.516ZM128.516 92.9281V80.7681H129.54V92.9281H128.516ZM103.3 50.6881C103.3 45.4828 104.409 40.8748 106.628 36.8641C108.847 32.8534 111.876 29.6961 115.716 27.3921C119.556 25.0028 123.865 23.8081 128.644 23.8081V35.8401C125.401 35.8401 122.841 37.1628 120.964 39.8081C119.087 42.3681 118.148 45.9948 118.148 50.6881H103.3ZM154.628 50.6881H139.78C139.78 45.9948 138.841 42.3681 136.964 39.8081C135.172 37.1628 132.612 35.8401 129.284 35.8401V23.8081C134.148 23.8081 138.457 25.0028 142.212 27.3921C146.052 29.6961 149.081 32.8534 151.3 36.8641C153.519 40.8748 154.628 45.4828 154.628 50.6881ZM103.3 66.0481H118.148C118.148 70.6561 119.087 74.2828 120.964 76.9281C122.841 79.4881 125.401 80.7681 128.644 80.7681V92.9281C123.865 92.9281 119.556 91.7761 115.716 89.4721C111.876 87.0828 108.847 83.8828 106.628 79.8721C104.409 75.7761 103.3 71.1681 103.3 66.0481ZM154.628 66.0481C154.628 71.1681 153.519 75.7761 151.3 79.8721C149.081 83.8828 146.052 87.0828 142.212 89.4721C138.457 91.7761 134.148 92.9281 129.284 92.9281V80.7681C132.612 80.7681 135.172 79.4881 136.964 76.9281C138.841 74.2828 139.78 70.6561 139.78 66.0481H154.628Z" fill="#453C59"/>
<path d="M64.25 91.008V25.728H79.098V91.008H64.25ZM73.722 48.64C73.722 43.9466 74.4473 39.7653 75.898 36.096C77.3487 32.3413 79.3113 29.3973 81.786 27.264C84.2607 25.1306 87.0767 24.064 90.234 24.064L88.698 37.632C85.882 37.632 83.578 38.6986 81.786 40.832C79.994 42.88 79.098 45.4826 79.098 48.64H73.722ZM96.506 40.704C95.3967 39.7653 94.1167 39.04 92.666 38.528C91.3007 37.9306 89.978 37.632 88.698 37.632L90.234 24.064C92.282 24.064 94.2447 24.4906 96.122 25.344C98.0847 26.112 99.834 27.1786 101.37 28.544L96.506 40.704Z" fill="#453C59"/>
<path d="M0 25.8561V0.128052H14.848V25.8561H0ZM14.848 91.0081H0V25.7281H14.848V91.0081ZM51.456 68.9921H36.608V47.744H51.456V68.9921ZM36.608 47.744C36.608 44.16 35.6267 41.3014 33.664 39.1681C31.7013 37.0347 29.184 35.9681 26.112 35.9681L30.208 23.6801C34.2187 23.6801 37.8027 24.7467 40.96 26.8801C44.2027 28.9281 46.7627 31.7867 48.64 35.4561C50.5173 39.0401 51.456 43.136 51.456 47.744H36.608ZM9.472 48.3841C9.472 43.6907 10.368 39.4667 12.16 35.7121C14.0373 31.9574 16.512 29.0134 19.584 26.8801C22.7413 24.7467 26.2827 23.6801 30.208 23.6801L26.112 35.9681C22.784 35.9681 20.0533 37.1201 17.92 39.4241C15.872 41.6427 14.848 44.6294 14.848 48.3841H9.472ZM36.608 68.9921H51.456C51.456 73.5147 50.5173 77.6107 48.64 81.2801C46.7627 84.8641 44.2027 87.7227 40.96 89.8561C37.8027 91.9041 34.2187 92.9281 30.208 92.9281L26.112 80.6401C29.184 80.6401 31.7013 79.5734 33.664 77.4401C35.6267 75.3067 36.608 72.4907 36.608 68.9921ZM9.472 68.3521H14.848C14.848 72.0214 15.872 75.0081 17.92 77.3121C20.0533 79.5307 22.784 80.6401 26.112 80.6401L30.208 92.9281C26.2827 92.9281 22.7413 91.8614 19.584 89.7281C16.512 87.5947 14.0373 84.6934 12.16 81.0241C10.368 77.2694 9.472 73.0454 9.472 68.3521Z" fill="#453C59"/>
<path d="M215.57 69.0081C221.459 66.9247 233.903 62.0081 236.57 59.0081" stroke="#453C59" stroke-width="5" stroke-linecap="round"/>
</svg>
