<svg width="232" height="54" viewBox="0 0 232 54" fill="none" xmlns="http://www.w3.org/2000/svg">
<path d="M6.70703 18.0898C7.50657 17.0719 8.4404 16.2166 9.50879 15.5254C11.2777 14.381 13.2925 13.8086 15.5527 13.8086C17.813 13.8086 19.8278 14.381 21.5967 15.5254C23.4148 16.6699 24.8402 18.2381 25.8721 20.2285C26.9038 22.2188 27.4199 24.4585 27.4199 26.9463V40.6055C27.4199 43.0934 26.9039 45.3328 25.8721 47.3232C24.8402 49.3136 23.4147 50.8809 21.5967 52.0254C19.8277 53.1699 17.813 53.7422 15.5527 53.7422C13.2924 53.7422 11.2778 53.1699 9.50879 52.0254C8.4402 51.304 7.50666 50.4368 6.70703 49.4248V52.623H0V0H6.70703V18.0898ZM130.501 6.58203C133.563 6.59439 136.26 7.26927 138.59 8.6084C140.999 9.96006 142.893 11.8405 144.27 14.25C145.676 16.5545 146.39 19.1699 146.418 22.0957H146.421V52.4199H138.59V47.6836C137.668 49.0469 136.607 50.2145 135.406 51.1855C133.284 52.8898 130.845 53.7422 128.092 53.7422C125.51 53.7422 123.159 53.1256 121.036 51.8916C118.914 50.6575 117.221 48.9819 115.959 46.8662C114.697 44.6918 114.065 42.2822 114.065 39.6377C114.065 36.8758 114.726 34.466 116.045 32.4092C117.422 30.2937 119.257 28.6188 121.552 27.3848C123.846 26.1506 126.457 25.5332 129.383 25.5332H138.59V22.2715C138.59 19.6859 137.815 17.5702 136.267 15.9248C134.781 14.2858 132.84 13.4634 130.443 13.457C128.346 13.4631 126.568 13.8 125.033 15.0811C123.542 16.315 122.591 17.0979 122.304 19.7422H117.386V19.7461H107.11V52.3711H99.6934V19.7461H89.418V13.9844H116.933C117.168 13.5894 117.418 13.2079 117.68 12.8398C119.114 10.9006 120.921 9.37243 123.101 8.25586C125.314 7.1512 127.752 6.59383 130.415 6.58203V6.58105H130.501V6.58203ZM74.3076 13.4805C74.3177 13.4804 74.3278 13.4795 74.3379 13.4795H75.1611V13.498C77.3512 13.5868 79.3183 14.0098 81.0479 14.7871C83.0341 15.6269 84.6139 16.8448 85.751 18.4531L85.959 18.7549C86.8126 20.0404 87.3011 21.479 87.4316 23.0547H87.4688V43.3369H87.4326C87.2939 45.0649 86.7379 46.6229 85.751 47.9893C84.6129 49.5648 83.0326 50.7819 81.0479 51.6553V51.6562C79.3183 52.4336 77.3512 52.8565 75.1611 52.9453V52.9639H74.3379C74.3278 52.9639 74.3177 52.9629 74.3076 52.9629C74.2974 52.9629 74.2866 52.9639 74.2764 52.9639H73.4531V52.9443C71.2949 52.8543 69.3313 52.4307 67.5732 51.6582C65.5855 50.7846 64.0026 49.5665 62.8633 47.9893C61.8764 46.6229 61.3203 45.0649 61.1816 43.3369H61.1455V23.0547H61.1826C61.3234 21.3548 61.8803 19.8139 62.8633 18.4531C64.0015 16.8432 65.5842 15.6241 67.5732 14.7842L67.9502 14.626C69.6106 13.954 71.4479 13.5827 73.4531 13.499V13.4795H74.2764C74.2866 13.4795 74.2974 13.4805 74.3076 13.4805ZM44.2744 14.002C46.5086 14.0905 48.5146 14.5191 50.2773 15.3066C52.3005 16.157 53.9093 17.3904 55.0664 19.0205C56.0652 20.3976 56.6298 21.9567 56.7715 23.6777H56.8086V27.0947H56.7715C56.6298 28.8223 56.0639 30.3983 55.0664 31.8037L55.0605 31.8115C53.9016 33.4063 52.2922 34.6383 50.2705 35.5215L50.2656 35.5234C50.1539 35.5713 50.0404 35.617 49.9268 35.6621L57.5176 52.3711H49.7939L42.7148 36.7881H39.8203V52.3711H32.3857V13.9844H44.2744V14.002ZM164.372 14.002C166.606 14.0905 168.612 14.5191 170.375 15.3066C172.398 16.1569 174.007 17.3904 175.164 19.0205C176.163 20.3976 176.727 21.9567 176.869 23.6777H176.906V27.0947H176.869C176.727 28.8223 176.162 30.3982 175.164 31.8037L175.158 31.8115C173.999 33.4061 172.391 34.6383 170.369 35.5215L170.363 35.5234C170.252 35.5713 170.138 35.6171 170.024 35.6621L177.615 52.3711H169.892L162.812 36.7881H159.918V52.3711H152.483V13.9844H164.372V14.002ZM205.678 19.7461H195.402V52.3711H187.984V19.7461H177.709V13.9844H205.678V19.7461ZM231.365 19.7461H216.943V30.2969H228.188V36.1631H216.943V46.6094H232V52.3711H209.516V13.9844H231.365V19.7461ZM68.9766 51.3223C69.2031 51.3991 69.4333 51.4701 69.667 51.5361C69.4367 51.471 69.2097 51.4009 68.9863 51.3252L68.9766 51.3223ZM13.8574 19.8545C11.7445 19.8545 10.024 20.5266 8.69727 21.8701C7.37071 23.2135 6.70714 24.9553 6.70703 27.0947V40.3818L6.71484 40.7871C6.79258 42.79 7.45372 44.4211 8.69727 45.6807C10.024 47.0242 11.7444 47.6963 13.8574 47.6963C15.872 47.6962 17.5183 47.0496 18.7959 45.7559C20.0735 44.4123 20.7119 42.6954 20.7119 40.6055V26.9463C20.7119 24.8564 20.0735 23.1639 18.7959 21.8701C17.5183 20.5266 15.872 19.8545 13.8574 19.8545ZM77.2461 47.6523C77.2825 47.6404 77.3195 47.6306 77.3555 47.6182L77.3652 47.6143C77.326 47.6279 77.2859 47.6394 77.2461 47.6523ZM78.0332 47.3379C78.0851 47.313 78.1377 47.2899 78.1885 47.2637L78.1934 47.2607C78.141 47.2879 78.0869 47.3121 78.0332 47.3379ZM74.3076 19.1914C72.3639 19.1962 70.9301 19.6473 69.917 20.4521C68.9812 21.2276 68.4767 22.3455 68.4766 23.9287V42.4619L68.4824 42.7549C68.5415 44.1839 69.0393 45.2333 69.9229 45.9941C70.9357 46.7966 72.367 47.2462 74.3076 47.251C76.2544 47.2461 77.6595 46.7944 78.626 45.998C79.6161 45.1821 80.1377 44.0395 80.1377 42.4619V23.9287C80.1376 22.3509 79.6162 21.2334 78.6367 20.4541L78.6309 20.4502L78.626 20.4453C77.6595 19.649 76.2543 19.1963 74.3076 19.1914ZM129.812 31.7041C127.403 31.7042 125.395 32.4391 123.789 33.9082C122.24 35.3186 121.466 37.141 121.466 39.374C121.466 41.6069 122.183 43.4577 123.617 44.9268C125.109 46.396 126.801 47.1309 128.694 47.1309C130.76 47.1309 132.509 46.6018 133.943 45.5439C135.435 44.4861 136.583 42.9289 137.386 40.8721C138.189 38.8153 138.59 36.3764 138.59 33.5557V31.7041H129.812ZM69.6348 46.8076C69.7569 46.8948 69.8843 46.9756 70.0146 47.0537C69.8839 46.9753 69.7563 46.8941 69.6338 46.8066L69.6348 46.8076ZM78.9258 46.8066C78.8661 46.8506 78.8053 46.8933 78.7432 46.9346C78.8049 46.8936 78.8655 46.8513 78.9248 46.8076L78.9258 46.8066ZM67.6807 43.1133C67.6824 43.1329 67.6856 43.1524 67.6875 43.1719C67.685 43.1459 67.6819 43.1199 67.6797 43.0938L67.6807 43.1133ZM39.8203 31.0781H43.3877C45.3842 31.0781 46.8255 30.604 47.8184 29.7617L47.8242 29.7578L47.8301 29.7529C48.8457 28.9208 49.373 27.7768 49.373 26.2197V24.5527C49.373 22.9546 48.842 21.8202 47.8408 21.0283L47.835 21.0234L47.8301 21.0195C46.8989 20.2568 45.5694 19.8054 43.7568 19.752L43.3877 19.7461H39.8203V31.0781ZM159.918 31.0781H163.486C165.483 31.0781 166.923 30.6039 167.916 29.7617L167.922 29.7578L167.928 29.7529C168.944 28.9208 169.471 27.7769 169.471 26.2197V24.5527C169.471 22.9545 168.94 21.8202 167.938 21.0283L167.933 21.0234L167.928 21.0195C166.997 20.2568 165.667 19.8054 163.854 19.752L163.486 19.7461H159.918V31.0781ZM47.7715 30.8154C47.8089 30.7915 47.8471 30.7689 47.8838 30.7441L47.8984 30.7334C47.8569 30.7617 47.814 30.7882 47.7715 30.8154ZM54.8564 30.6006C54.9362 30.4611 55.0147 30.3215 55.0859 30.1787L55.0908 30.168C55.018 30.3144 54.9382 30.4577 54.8564 30.6006ZM175.548 29.333C175.556 29.3111 175.565 29.2896 175.573 29.2676L175.58 29.2471C175.57 29.2759 175.558 29.3043 175.548 29.333ZM70.3906 19.1797C70.0567 19.3484 69.7479 19.5452 69.4619 19.7666C69.7465 19.5463 70.0537 19.3508 70.3857 19.1826L70.3906 19.1797ZM49.2266 15.7646C49.4698 15.8558 49.7081 15.9534 49.9414 16.0576C49.71 15.9542 49.4736 15.8572 49.2324 15.7666L49.2266 15.7646ZM169.324 15.7646C169.567 15.8558 169.806 15.9534 170.039 16.0576C169.808 15.9543 169.572 15.8571 169.331 15.7666L169.324 15.7646ZM80.1221 15.293C80.0862 15.279 80.0508 15.2636 80.0146 15.25L80.0088 15.248C80.0468 15.2624 80.0843 15.2783 80.1221 15.293ZM166.823 15.0869C166.756 15.0748 166.688 15.0621 166.62 15.0508L166.588 15.0459C166.667 15.0588 166.745 15.0729 166.823 15.0869ZM70.8906 14.6162C70.7654 14.6405 70.641 14.6663 70.5176 14.6934C70.65 14.6643 70.7835 14.6372 70.918 14.6113L70.8906 14.6162ZM78.126 14.6934L77.7549 14.6162L77.7275 14.6113C77.8616 14.6371 77.9944 14.6644 78.126 14.6934Z" fill="#453C59"/>
</svg>
